/* XPM */
static char *gnumeric_22x22[] = {
/* columns rows colors chars-per-pixel */
"22 22 164 2",
"   c #000000",
".  c #060E0F",
"X  c #090909",
"o  c #071012",
"O  c #091315",
"+  c #0C1A1C",
"@  c #161616",
"#  c #1F1311",
"$  c gray12",
"%  c #122A2F",
"&  c #282C1C",
"*  c #32231F",
"=  c #3A241E",
"-  c #203A3F",
";  c #373737",
":  c #20434A",
">  c #274C52",
",  c #3A4450",
"<  c #35636B",
"1  c #4E322B",
"2  c #403F3F",
"3  c #523D38",
"4  c #454623",
"5  c #524B2A",
"6  c #59423F",
"7  c #55552C",
"8  c #5E5E30",
"9  c #464646",
"0  c #4B4B4B",
"q  c #454E58",
"w  c #484E56",
"e  c #46515D",
"r  c #49515C",
"t  c #5A4A47",
"y  c #525252",
"u  c #585858",
"i  c #4C5560",
"p  c #4C5A6B",
"a  c #525A65",
"s  c #4A6569",
"d  c #56616D",
"f  c #586566",
"g  c #586069",
"h  c #566472",
"j  c #536D72",
"k  c #576A7F",
"l  c #5A6674",
"z  c #5F6A76",
"x  c #596A7D",
"c  c #5B747B",
"v  c #6F4B42",
"b  c #6E524D",
"n  c #687655",
"m  c #60676E",
"M  c #606C7A",
"N  c #727272",
"B  c #7E7E7E",
"V  c #167285",
"C  c #1C7485",
"Z  c #1B7689",
"A  c #1C798D",
"S  c #257D8B",
"D  c #287888",
"F  c #207F95",
"G  c #3B7782",
"H  c #387985",
"J  c #5B6D81",
"K  c #5E738C",
"L  c #5F7880",
"P  c #647384",
"I  c #61778F",
"U  c #6B7887",
"Y  c #6B7B8C",
"T  c #6C7F94",
"R  c #5E907E",
"E  c #7C837A",
"W  c #25859D",
"Q  c #2C8CA4",
"!  c #4F968E",
"~  c #6E8196",
"^  c #69829E",
"/  c #708398",
"(  c #6C86A2",
")  c #7692B1",
"_  c #7A96B4",
"`  c #7D98B6",
"'  c #9F503F",
"]  c #835045",
"[  c #8E5B51",
"{  c #9B5242",
"}  c #925D51",
"|  c #9A665B",
" . c #866969",
".. c #936B67",
"X. c #9F746B",
"o. c #A55343",
"O. c #AB5443",
"+. c #B25644",
"@. c #B35A45",
"#. c #B95A46",
"$. c #BC5B48",
"%. c #A06252",
"&. c #B46352",
"*. c #B16D5E",
"=. c #B86D51",
"-. c #BA6F5F",
";. c #B2734B",
":. c #BF705D",
">. c #AB7569",
",. c #AB7B71",
"<. c #C25E4A",
"1. c #C6604C",
"2. c #CB624D",
"3. c #CD6B58",
"4. c #D2654F",
"5. c #D36650",
"6. c #D76952",
"7. c #D96751",
"8. c #DC6A53",
"9. c #D6705B",
"0. c #DB725C",
"q. c #C27968",
"w. c #D27B68",
"e. c #E16C55",
"r. c #9D9B55",
"t. c #8FAF71",
"y. c #AC9857",
"u. c #B99355",
"i. c #B4877C",
"p. c #A7A659",
"a. c #AFB15B",
"s. c #BABF67",
"d. c #C69958",
"f. c #C28271",
"g. c #DE8570",
"h. c #CEBA60",
"j. c #C6CA66",
"k. c #CFCE66",
"l. c #C3D16E",
"z. c #CCD066",
"x. c #828282",
"c. c #8A8A8A",
"v. c #9A8783",
"b. c #939393",
"n. c #9C9C9B",
"m. c #8CB987",
"M. c #A38882",
"N. c #B08E87",
"B. c #A4A4A4",
"V. c #ADADAD",
"C. c #B3A9A6",
"Z. c #B9AAA7",
"A. c #B2B2B2",
"S. c #BDBDBC",
"D. c #BFC0C0",
"F. c #CB9182",
"G. c #C0BDBC",
"H. c #C2C2C2",
"J. c #CCCCCB",
"K. c gray82",
"L. c #E5E5E4",
"P. c #EAEBEC",
"I. c #F3F3F3",
"U. c None",
/* pixels */
"@ 9 y y y y y y y y y y y y y y y y ; X   U.",
"9 H.A.A.A.V.V.V.A.V.V.V.V.V.V.V.V.A.n.X   U.",
"y A.l Y Y Y r Y Y Y Y l a Y Y Y Y m n.X   U.",
"y A.a J x x , x J J J p e J J J x a b.X   U.",
"y V.z / ~ ~ u A.H.H.H.n.x.H.D.D.S.x.b.X   U.",
"y V.Y ` ) ) M P.I.I.I.J.B.I.I.I.P.b.b.X   U.",
"y V.h I K K r A.H.H.H.B.x.D.S.S.S.B b.X   U.",
"y V.a P P J r n.B.B.B.c.N B.B.B.B.N b.X   U.",
"y V.Y ` ) ) M L.I.P.P.D.n.P.P.P.P.b.b.X   U.",
"y V.M ( ^ ^ a S.Z.N.,.| [ X.M.C.J.c.b.X   U.",
"y V.r l l r t *.3.0.8.7.4.2.#.O.] t b.X   U.",
"y V.Y ` ~ ..9.e.e.8.7.4.2.<.<.$.+.o.b X     ",
"y V.P (  .0.e.8.8.5.2.2.<.$.$.+.O.O.' 1     ",
"y V.q i -.e.8.8.4.4.<.$.$.@.O.O.o.' ' v X   ",
"y V.Y P :.8.5.2.2.<.$.=.E c c j j s s f @   ",
"y V.Y P f.6.2.2.$.$.$.d.m.Q W W A V C < .   ",
"w A.g a i.g.<.<.#.+.@.h.l.! W Z V < H -     ",
"0 K.J.H.v.F.w.#.+.O.;.k.z.t.S Z S S > O     ",
"$ u u u 2 3 >.q.&.O.u.k.j.s.R H < : +       ",
"            * v } | y.a.p.r.n : % O       U.",
"                # = 5 8 7 4 & .         U.U.",
"U.U.U.U.U.U.                          U.U.U."
};
